<?xml version="1.0" encoding="iso-8859-1"?>
<!-- Uploaded to: SVG Repo, www.svgrepo.com, Generator: SVG Repo Mixer Tools -->
<svg height="800px" width="800px" version="1.1" id="Capa_1" xmlns="http://www.w3.org/2000/svg" xmlns:xlink="http://www.w3.org/1999/xlink" 
	 viewBox="0 0 20.306 20.306" xml:space="preserve">
<g>
	<g>
		<path style="fill:#fff;" d="M7.816,10.297c1.197,0.148,2.314,0.529,3.35,1.008c0.503,0.235,1.04,0.542,1.461,0.782
			c0.422,0.248,0.85,0.473,1.282,0.691l-2.624-5.195L10.73,6.608L8.771,3.177C8.495,2.693,7.879,2.524,7.394,2.8
			C6.908,3.08,6.74,3.695,7.018,4.18l2.166,3.797L8.629,8.469l-3.31,1.888l-0.077,0.042C6.097,10.219,6.978,10.192,7.816,10.297z"/>
		<circle style="fill:#fff;" cx="14.955" cy="8.194" r="2.179"/>
		<path style="fill:#fff;" d="M20.161,12.613c-0.309,1.027-0.797,1.98-1.492,2.473c-0.677,0.492-1.448,0.523-2.298,0.352
			c-0.848-0.176-1.726-0.541-2.586-0.975c-0.436-0.219-0.864-0.443-1.288-0.693c-0.42-0.24-0.959-0.547-1.461-0.781
			c-1.035-0.479-2.152-0.861-3.351-1.01c-1.189-0.148-2.469-0.051-3.623,0.408c-1.158,0.451-2.138,1.242-2.817,2.174
			C0.578,15.502,0.116,16.547,0,17.639c1.297-1.719,2.953-2.951,4.67-3.238c1.712-0.314,3.495,0.201,5.224,1.014
			c0.451,0.205,0.83,0.412,1.326,0.678c0.5,0.25,1.01,0.494,1.535,0.699c1.054,0.406,2.188,0.74,3.438,0.748
			c0.62,0.002,1.278-0.084,1.901-0.342c0.625-0.25,1.185-0.695,1.55-1.227C20.358,14.879,20.431,13.664,20.161,12.613z"/>
	</g>
</g>
</svg>